<svg xmlns="http://www.w3.org/2000/svg" version="1.1" xmlns:xlink="http://www.w3.org/1999/xlink" xmlns:svgjs="http://svgjs.com/svgjs" width="428.56" height="359.07"><svg id="SvgjsSvg1005" data-name="Layer 2" xmlns="http://www.w3.org/2000/svg" xmlns:xlink="http://www.w3.org/1999/xlink" viewBox="0 0 428.56 359.07">
  <defs>
    <style>
      .cls-1 {
        fill: #349a46;
      }

      .cls-2 {
        fill: #79c252;
      }

      .cls-3 {
        fill: #0f763c;
      }

      .cls-4 {
        fill: url(#linear-gradient);
      }

      .cls-5 {
        fill: #231f20;
      }
    </style>
    <linearGradient id="SvgjsLinearGradient1004" x1="118.48" y1="149.29" x2="398.64" y2="149.29" gradientUnits="userSpaceOnUse">
      <stop offset="0" stop-color="#fff"></stop>
      <stop offset=".76" stop-color="#349a46"></stop>
      <stop offset="1" stop-color="#7ebe5c"></stop>
    </linearGradient>
  </defs>
  <g id="SvgjsG1003" data-name="Layer 1">
    <g id="SvgjsG1002" data-name="hPower Black">
      <g id="SvgjsG1001">
        <polygon class="cls-1" points="16.09 359.07 0 312.74 133.2 259.97 16.09 359.07"></polygon>
        <polygon class="cls-2" points="22.2 334.29 2.25 313.7 120.98 266.89 22.2 334.29"></polygon>
        <path class="cls-1" d="m136.1,259.33c-15.44-24.13-46.65-74.64-26.06-107.46,20.59-32.82,69.18-42.15,78.18-45.04,9.01-2.9,130.49-30.55,158.94-43.76,36.04-16.73,49.55-17.37,81.4-63.06-9.65,17.05-22.2,58.88-22.2,58.88-11.9,52.77-16.41,65.31-20.91,77.54-4.5,12.23-23.81,77.54-74.64,112.93-50.84,35.39-105.61,21.57-116.79,19.95-44.4-6.43-57.91-9.97-57.91-9.97Z"></path>
        <path class="cls-4" d="m140.92,251.6c-8.04-15.77-34.75-65.96-15.77-93.95s52.44-36.04,52.44-36.04c23.81-7.08,115.83-30.57,115.83-30.57,30.89-9.65,72.07-24.45,105.21-44.08-79.15,61.78-160.87,130.63-177.28,142.53-16.41,11.9-80.44,62.1-80.44,62.1Z"></path>
        <path class="cls-3" d="m140.6,258.68c-.3,0-.6-.11-.85-.32-.54-.47-.59-1.28-.12-1.81,11.32-12.94,37.01-36.67,49.02-47.41,11.01-9.85,93.99-72.89,133.88-103.19l11.63-8.84c5.76-4.38,11.82-8.74,18.24-13.36,26.61-19.15,56.78-40.86,61.39-63.41.14-.69.82-1.14,1.52-1,.7.14,1.15.82,1,1.52-4.81,23.54-34.09,44.61-62.41,64.98-6.4,4.61-12.46,8.96-18.19,13.32l-11.63,8.84c-39.85,30.28-122.79,93.28-133.72,103.06-11.96,10.7-37.55,34.34-48.79,47.18-.26.29-.61.44-.97.44Z"></path>
        <path class="cls-3" d="m232.94,274.13c-9.27-.56-24.96-3.5-41.57-6.61-21.57-4.05-46.03-8.64-55.31-7.56-1.41.18-2.69-.85-2.85-2.26-.16-1.41.85-2.69,2.26-2.85,10.08-1.17,33.85,3.3,56.85,7.61,16.44,3.08,31.98,6,40.77,6.53,15.43,0,67.74-9.06,102.46-49.3,36.29-42.06,52.07-102.89,52.21-103.49,1.91-7.95,20.4-86.71,20.59-87.5.33-1.39,1.72-2.23,3.09-1.92,1.38.32,2.24,1.71,1.92,3.09-.19.79-18.69,79.57-20.6,87.53-.15.61-15.63,61.98-53.32,105.65-36.16,41.91-89.15,51.08-106.52,51.08Z"></path>
      </g>
      <g id="SvgjsG1000">
        <path class="cls-5" d="m146.73,129.34h28.09l-8.26,180.91h-28.49l8.67-180.91Zm59.76,96.68c.28-6.55-1.07-11.55-4.05-14.99-2.98-3.44-7.43-5.17-13.35-5.17s-10.23,1.64-13.43,4.92c-3.2,3.28-4.94,8.07-5.22,14.37l-1.47-21.9c3.56-7.8,8.15-13.79,13.76-17.98,5.61-4.19,11.98-6.28,19.12-6.28,11.08,0,19.5,3.76,25.27,11.26,5.77,7.51,8.39,18.19,7.82,32.04l-3.57,87.97h-28.49l3.6-84.24Z"></path>
      </g>
    </g>
  </g>
</svg><style></style></svg>
